<svg xmlns="http://www.w3.org/2000/svg" viewBox="0 0 64 64" role="img" aria-label="SkyFrost">
  <defs>
    <linearGradient id="ice" x1="0" y1="0" x2="1" y2="1">
      <stop offset="0%" stop-color="#f7fbff" />
      <stop offset="45%" stop-color="#9ce5ff" />
      <stop offset="100%" stop-color="#3398ff" />
    </linearGradient>
    <linearGradient id="shade" x1="0" y1="0" x2="1" y2="1">
      <stop offset="0%" stop-color="#0d1841" />
      <stop offset="100%" stop-color="#050a1e" />
    </linearGradient>
  </defs>
  <rect width="64" height="64" rx="18" fill="#040b19" />
  <circle cx="32" cy="30" r="23" fill="#5bd4ff" opacity=".18" />
  <path d="M32 6l5 10 11 2-7 7 2 9-11 2-11-2 2-9-7-7 11-2z" fill="url(#ice)" opacity=".92" />
  <path d="M21 28l11-16 11 16-4 15-7 9-7-9z" fill="#edf7ff" stroke="#122356" stroke-width="2.4" stroke-linejoin="round" />
  <path d="M23 27l8-5-2 9-6 4z" fill="url(#shade)" />
  <path d="M41 27l-8-5 2 9 6 4z" fill="url(#shade)" />
  <path d="M26 37l6-3 6 3-3 7h-6z" fill="url(#shade)" />
  <path d="M27 27l4-3 1 5-4 2z" fill="#57d2ff" />
  <path d="M37 27l-4-3-1 5 4 2z" fill="#57d2ff" />
</svg>
