<svg xmlns="http://www.w3.org/2000/svg" viewBox="0 0 640 640" role="img" aria-label="SkyFrost crest">
  <defs>
    <linearGradient id="sf-bg" x1="0" y1="0" x2="1" y2="1">
      <stop offset="0%" stop-color="#f7fbff" />
      <stop offset="42%" stop-color="#9ddfff" />
      <stop offset="100%" stop-color="#3b78ff" />
    </linearGradient>
    <linearGradient id="sf-ice" x1="0" y1="0" x2="1" y2="1">
      <stop offset="0%" stop-color="#effbff" />
      <stop offset="48%" stop-color="#9ce5ff" />
      <stop offset="100%" stop-color="#2fb7ff" />
    </linearGradient>
    <linearGradient id="sf-dark" x1="0" y1="0" x2="1" y2="1">
      <stop offset="0%" stop-color="#0e1a47" />
      <stop offset="100%" stop-color="#03091f" />
    </linearGradient>
    <linearGradient id="sf-plate" x1="0" y1="0" x2="0" y2="1">
      <stop offset="0%" stop-color="#fefeff" />
      <stop offset="100%" stop-color="#bccdff" />
    </linearGradient>
    <radialGradient id="sf-core" cx="50%" cy="42%" r="56%">
      <stop offset="0%" stop-color="#b9f7ff" stop-opacity=".98" />
      <stop offset="55%" stop-color="#59d0ff" stop-opacity=".38" />
      <stop offset="100%" stop-color="#08112a" stop-opacity="0" />
    </radialGradient>
    <filter id="sf-glow" x="-30%" y="-30%" width="160%" height="160%">
      <feDropShadow dx="0" dy="0" stdDeviation="14" flood-color="#8feaff" flood-opacity=".45" />
      <feDropShadow dx="0" dy="0" stdDeviation="32" flood-color="#4ec7ff" flood-opacity=".2" />
    </filter>
  </defs>

  <circle cx="320" cy="320" r="304" fill="url(#sf-core)" />

  <g filter="url(#sf-glow)">
    <path d="M94 194c48-76 121-125 211-143l-26 44 43 12-21 50-46-7c-48 18-92 47-126 89l-35-18z" fill="url(#sf-ice)" opacity=".96"/>
    <path d="M546 194c-48-76-121-125-211-143l26 44-43 12 21 50 46-7c48 18 92 47 126 89l35-18z" fill="url(#sf-ice)" opacity=".96"/>
    <path d="M76 388c16 83 72 152 152 192l-2-54 42 10 25-48-43-15c-40-21-76-52-102-93l-72 8z" fill="url(#sf-ice)" opacity=".92"/>
    <path d="M564 388c-16 83-72 152-152 192l2-54-42 10-25-48 43-15c40-21 76-52 102-93l72 8z" fill="url(#sf-ice)" opacity=".92"/>
    <path d="M206 572c69 27 160 28 228 0l-38-33 27-35-46-15-57 34-57-34-46 15 27 35z" fill="url(#sf-bg)" opacity=".96"/>
  </g>

  <g fill="url(#sf-dark)" stroke="#c7f1ff" stroke-width="8" stroke-linejoin="round" filter="url(#sf-glow)">
    <path d="M142 256c28-49 71-92 125-120l15 26c-40 28-72 62-94 112l-46-18z" />
    <path d="M498 256c-28-49-71-92-125-120l-15 26c40 28 72 62 94 112l46-18z" />
    <path d="M154 408c18 47 52 89 96 119l18-26c-33-24-58-53-76-93l-38 0z" />
    <path d="M486 408c-18 47-52 89-96 119l-18-26c33-24 58-53 76-93l38 0z" />
  </g>

  <g transform="translate(320 288)" filter="url(#sf-glow)">
    <path d="M0-138 55-88 88-75 71-32 119 6 96 61 42 78 0 138-42 78-96 61-119 6-71-32-88-75-55-88z" fill="url(#sf-ice)" opacity=".95"/>
    <path d="M-116-28-61-76-21-72-45-29-17 9-71 10z" fill="url(#sf-dark)" opacity=".95"/>
    <path d="M116-28 61-76 21-72 45-29 17 9 71 10z" fill="url(#sf-dark)" opacity=".95"/>
    <path d="M-56-26-98-118-44-77-16-74-28-44z" fill="url(#sf-ice)"/>
    <path d="M56-26 98-118 44-77 16-74 28-44z" fill="url(#sf-ice)"/>
    <path d="M-23-88 0-128 23-88 16-50 0-64-16-50z" fill="url(#sf-bg)"/>
    <path d="M-70 14-43-53-11-88 0-83 11-88 43-53 70 14 54 77 0 110-54 77z" fill="url(#sf-plate)" stroke="#18295c" stroke-width="10" stroke-linejoin="round"/>
    <path d="M-54 9-28-10-18 24-38 39z" fill="url(#sf-dark)"/>
    <path d="M54 9 28-10 18 24 38 39z" fill="url(#sf-dark)"/>
    <path d="M-27 5-6-11-1 13-22 24z" fill="#56cbff"/>
    <path d="M27 5 6-11 1 13 22 24z" fill="#56cbff"/>
    <path d="M-34 63 0 45 34 63 16 89-16 89z" fill="url(#sf-dark)"/>
    <path d="M-54 74-14 53-28 96z" fill="url(#sf-ice)"/>
    <path d="M54 74 14 53 28 96z" fill="url(#sf-ice)"/>
  </g>

  <g fill="url(#sf-ice)" filter="url(#sf-glow)">
    <path d="M162 160l18-42 18 29 36-20-13 37 26 18-39 4-14 33-14-30-41 1 28-23z"/>
    <path d="M478 160l-18-42-18 29-36-20 13 37-26 18 39 4 14 33 14-30 41 1-28-23z"/>
    <path d="M114 430l32-17-4 31 34 14-37 10-8 36-22-27-35 8 17-30-24-26z"/>
    <path d="M526 430l-32-17 4 31-34 14 37 10 8 36 22-27 35 8-17-30 24-26z"/>
  </g>
</svg>
